<svg height="512pt" viewBox="0 0 512 512" width="512pt" xmlns="http://www.w3.org/2000/svg"><path d="m512 256c0 141.386719-114.613281 256-256 256s-256-114.613281-256-256 114.613281-256 256-256 256 114.613281 256 256zm0 0" fill="#f40000"/><path d="m511.945312 260.386719-156.199218-156.195313-99.746094 347.808594 54.226562 54.226562c113.957032-24.582031 199.683594-125.011718 201.71875-245.839843zm0 0" fill="#9b000a"/><path d="m396.089844 202.5625c0 97.683594-140.089844 249.4375-140.089844 249.4375s-140.089844-151.753906-140.089844-249.4375c0-77.367188 62.722656-140.085938 140.089844-140.085938s140.089844 62.71875 140.089844 140.085938zm0 0" fill="#fff5f5"/><path d="m256 62.472656c77.367188 0 140.089844 62.722656 140.089844 140.089844 0 97.683594-140.089844 249.4375-140.089844 249.4375zm0 0" fill="#a2d8f4"/><path d="m285.335938 154.140625h-58.695313v37.378906h-37.382813v58.699219h37.382813v37.382812h58.695313zm0 0" fill="#f40000"/><path d="m322.71875 191.519531h-37.382812v-37.378906h-29.347657v133.460937h29.347657v-37.382812h37.382812zm0 0" fill="#9b000a"/></svg>